<svg width="18" height="15" viewBox="0 0 18 15" fill="none" xmlns="http://www.w3.org/2000/svg">
<path d="M0 7.5C0 9.48912 0.790176 11.3968 2.1967 12.8033C3.60322 14.2098 5.51088 15 7.5 15C9.49167 15 11.4 14.2167 12.8333 12.8333L11.5833 11.5833C11.0585 12.1387 10.4254 12.5805 9.72304 12.8815C9.02071 13.1825 8.26411 13.3363 7.5 13.3333C2.3 13.3333 -0.3 7.05 3.375 3.375C7.05 -0.3 13.3333 2.30833 13.3333 7.5H10.8333L14.1667 10.8333H14.25L17.5 7.5H15C15 5.51088 14.2098 3.60322 12.8033 2.1967C11.3968 0.790176 9.48912 0 7.5 0C5.51088 0 3.60322 0.790176 2.1967 2.1967C0.790176 3.60322 0 5.51088 0 7.5Z" fill="white"/>
</svg>
